<svg xmlns="http://www.w3.org/2000/svg" viewBox="0 0 25.8 25.8" xml:space="preserve"><path d="M12.9 0C5.8 0 0 5.8 0 12.9 0 20 5.8 25.8 12.9 25.8c7.1 0 12.9-5.8 12.9-12.9C25.8 5.8 20 0 12.9 0zm2.5 17.3h-5l-2.5-4.4 2.5-4.2h5l2.5 4.2-2.5 4.4z" fill="#323e44"/><path d="M9.2 17.3 3 6.5C.8 10.3.7 13.8 2 17.3h7.2z" fill="#ffd34a"/><path d="m3.7 5.6 3.7 6.3 6.1-10.8c-4-.1-7.3 1.4-9.8 4.5z" fill="#f99d29"/><path d="m14.7 1.3-3.6 6.2h12.3c-1.9-3.2-4.5-5.5-8.7-6.2z" fill="#e8504c"/><path d="m16.6 8.7 6.2 10.8c2-3.5 2.3-7.1 1.1-10.8h-7.3z" fill="#8e1d58"/><path d="m18.5 14 3.7 6.3c-2.9 3.3-6.3 4.5-9.8 4.4L18.5 14z" fill="#1f8bcc"/><path d="M2.4 18.3h12.3l-3.6 6.3c-3.7-.7-6.7-2.6-8.7-6.3z" fill="#89bb53"/></svg>