<svg xmlns="http://www.w3.org/2000/svg" viewBox="0 0 230.7 33.3" xml:space="preserve"><path d="M1.3 24.6c-.3 0-.5 0-.7-.1-.2-.1-.4-.3-.5-.5 0-.2-.1-.6-.1-.9V2.2c0-.5.1-.8.4-1.1.2-.3.6-.4 1-.4s.7.1 1 .4c.2.3.3.6.3 1.1v19.5H1.5l15-20c.2-.3.5-.5.7-.7.3-.2.6-.3 1-.3.3 0 .5.1.7.2.2.1.3.3.5.5.1.2.2.5.2.9v20.9c0 .4-.1.8-.4 1.1-.2.3-.6.4-1 .4s-.8-.1-1-.4c-.2-.3-.3-.6-.3-1.1V3.7H18l-15 20c-.2.3-.4.5-.7.6-.2.3-.5.3-1 .3zM29.1 33.3c-.5 0-.8-.1-1.1-.4-.3-.3-.4-.6-.4-1.1V2.3c0-.5.1-.9.4-1.2.3-.3.6-.4 1.1-.4.4 0 .8.1 1.1.4.3.3.4.6.4 1.2v4.9l-.6-.3c.5-1.9 1.6-3.4 3.1-4.6C34.6 1.2 36.5.6 38.7.6c2.1 0 3.9.5 5.4 1.5 1.6 1 2.8 2.4 3.6 4.2.8 1.8 1.3 3.9 1.3 6.4 0 2.5-.4 4.6-1.3 6.4-.8 1.8-2 3.2-3.6 4.2-1.5 1-3.4 1.5-5.5 1.5-2.2 0-4-.6-5.6-1.7-1.5-1.1-2.6-2.6-3.1-4.5h.5v13.2c0 .5-.1.8-.4 1.1-.1.3-.5.4-.9.4zm9.2-11c1.6 0 2.9-.4 4.1-1.1 1.2-.8 2.1-1.8 2.7-3.3.6-1.4 1-3.2 1-5.2 0-3-.7-5.4-2.1-7.1-1.4-1.7-3.3-2.5-5.7-2.5-1.6 0-2.9.4-4.1 1.1-1.2.8-2.1 1.9-2.8 3.3-.6 1.4-1 3.1-1 5.2 0 3.1.7 5.4 2.1 7.1 1.5 1.7 3.4 2.5 5.8 2.5zM56.9 24.6c-.3 0-.5 0-.7-.1-.2-.1-.4-.3-.5-.5-.1-.2-.2-.6-.2-.9V2.2c0-.5.1-.8.4-1.1.2-.3.6-.4 1-.4s.7.1 1 .4c.2.3.3.6.3 1.1v19.5H57l15-20c.2-.3.5-.5.7-.7.3-.2.6-.3 1-.3.3 0 .5.1.7.2.3.1.4.3.6.5.1.2.2.5.2.9v20.9c0 .4-.1.8-.4 1.1-.2.3-.6.4-1 .4s-.8-.1-1-.4c-.2-.3-.3-.6-.3-1.1V3.7h1.2l-15 20.1c-.2.3-.4.5-.7.6-.3.2-.7.2-1.1.2zM81.7 30.9c-.4 0-.7-.1-1-.4-.2-.2-.3-.6-.3-1v-6c0-1 .5-1.5 1.5-1.5h2.2l-1.8.6c.9-1.2 1.6-2.5 2.2-3.9.6-1.4 1-3 1.2-4.8.3-1.8.4-3.7.4-5.9V2.8c0-.5.1-1 .4-1.2s.7-.4 1.2-.4h12.4c.5 0 1 .1 1.2.4.3.3.4.7.4 1.2v20.5l-1.3-1.3h3.4c.5 0 .9.1 1.1.4.3.3.4.6.4 1.2v6c0 .9-.4 1.4-1.3 1.4-.4 0-.7-.1-.9-.4-.2-.2-.3-.6-.3-1v-5.1H83v5.1c0 .8-.4 1.3-1.3 1.3zm4.1-8.9H99V3.5H88.8v4.9c0 2.6-.3 5.1-.8 7.5-.5 2.3-1.2 4.4-2.2 6.1zM120.3 24.7c-2.2 0-4.1-.5-5.7-1.5-1.6-1-2.8-2.4-3.7-4.2-.9-1.8-1.3-3.9-1.3-6.4 0-1.8.2-3.5.7-4.9.5-1.5 1.2-2.7 2.2-3.8.9-1.1 2.1-1.9 3.4-2.4 1.3-.6 2.8-.8 4.4-.8 2.2 0 4.1.5 5.7 1.5 1.6 1 2.8 2.4 3.7 4.2.9 1.8 1.3 3.9 1.3 6.4 0 1.9-.2 3.5-.7 5-.5 1.5-1.2 2.7-2.2 3.8-.9 1.1-2.1 1.9-3.4 2.4-1.3.5-2.8.7-4.4.7zm0-2.4c1.6 0 3-.4 4.2-1.1 1.2-.8 2.1-1.8 2.7-3.3.6-1.4.9-3.2.9-5.2 0-3-.7-5.4-2.1-7.1-1.4-1.7-3.3-2.5-5.7-2.5-1.6 0-2.9.4-4.1 1.1-1.2.8-2.1 1.8-2.7 3.3-.6 1.4-.9 3.1-.9 5.2 0 3.1.7 5.4 2.1 7.1 1.4 1.7 3.3 2.5 5.6 2.5zM147.2 24.7c-2.3 0-4.2-.5-5.9-1.5-1.6-1-2.9-2.4-3.8-4.3-.9-1.8-1.3-4-1.3-6.4 0-1.9.2-3.5.7-5 .5-1.5 1.2-2.7 2.2-3.7.9-1 2.1-1.8 3.5-2.4 1.4-.6 2.9-.8 4.6-.8 1.2 0 2.4.2 3.6.6 1.2.4 2.4 1.1 3.4 2 .2.2.4.4.4.7.1.3 0 .5 0 .7-.1.2-.2.4-.4.6s-.4.2-.7.2c-.3 0-.6-.1-.8-.4-.9-.7-1.8-1.2-2.7-1.5s-1.8-.4-2.7-.4c-1.3 0-2.5.2-3.5.6-1 .4-1.8 1-2.5 1.8s-1.2 1.8-1.6 3c-.4 1.2-.5 2.5-.5 4 0 3 .7 5.4 2.1 7.1 1.4 1.7 3.4 2.6 6 2.6.9 0 1.8-.1 2.7-.4.9-.3 1.8-.8 2.7-1.5.3-.3.6-.4.8-.4.3 0 .5.1.7.2s.3.3.4.6c.1.2.1.5 0 .7-.1.3-.2.5-.4.7-1 .9-2.1 1.6-3.4 2-1.2.4-2.5.6-3.6.6zM161.6 24.6c-.5 0-.8-.1-1.1-.4-.3-.3-.4-.6-.4-1.1V2.4c0-.5.1-.9.4-1.2.3-.3.6-.4 1.1-.4.4 0 .8.1 1.1.4.3.3.4.6.4 1.2v8.7h4.8l7.6-9.6c.2-.3.5-.5.8-.6.3-.1.6-.1.8 0 .3.1.5.2.6.5.2.2.2.5.2.8 0 .3-.1.6-.4.9l-7.2 9.1-1-.9c.9.1 1.7.3 2.4.6.6.3 1.3.8 1.9 1.6.6.7 1.3 1.8 2.1 3.1l3.7 6c.2.3.2.6.2.9 0 .3-.2.5-.4.7-.2.2-.4.3-.7.4-.3 0-.5 0-.8-.1-.3-.1-.5-.3-.7-.6l-4-6.7c-.6-1-1.2-1.7-1.7-2.2-.5-.5-1.1-.9-1.8-1.1-.7-.2-1.5-.3-2.5-.3h-4v9.6c0 .5-.1.8-.4 1.1-.2.2-.6.3-1 .3zM193.9 24.7c-2.2 0-4.1-.5-5.7-1.5-1.6-1-2.8-2.4-3.7-4.2-.9-1.8-1.3-3.9-1.3-6.4 0-1.8.2-3.5.7-4.9.5-1.5 1.2-2.7 2.2-3.8.9-1.1 2.1-1.9 3.4-2.4 1.3-.6 2.8-.8 4.4-.8 2.2 0 4.1.5 5.7 1.5 1.6 1 2.8 2.4 3.7 4.2.9 1.8 1.3 3.9 1.3 6.4 0 1.9-.2 3.5-.7 5-.5 1.5-1.2 2.7-2.2 3.8-.9 1.1-2.1 1.9-3.4 2.4-1.3.5-2.8.7-4.4.7zm0-2.4c1.6 0 3-.4 4.2-1.1 1.2-.8 2.1-1.8 2.7-3.3.6-1.4.9-3.2.9-5.2 0-3-.7-5.4-2.1-7.1-1.4-1.7-3.3-2.5-5.7-2.5-1.6 0-2.9.4-4.1 1.1-1.2.8-2.1 1.8-2.7 3.3-.6 1.4-.9 3.1-.9 5.2 0 3.1.7 5.4 2.1 7.1 1.4 1.7 3.2 2.5 5.6 2.5zM212.7 24.6c-.5 0-.8-.1-1.1-.4-.3-.3-.4-.6-.4-1.1V2.8c0-.5.1-1 .4-1.2s.7-.4 1.2-.4h16.1c.5 0 1 .1 1.2.4s.4.7.4 1.2v20.4c0 .5-.1.8-.4 1.1-.3.3-.6.4-1.1.4-.4 0-.8-.1-1.1-.4-.3-.3-.4-.6-.4-1.1V3.5h-13.6v19.7c0 .5-.1.8-.4 1.1.1.2-.3.3-.8.3z"/><path d="M120.2 0c-7.1 0-12.9 5.8-12.9 12.9 0 7.1 5.8 12.9 12.9 12.9 7.1 0 12.9-5.8 12.9-12.9 0-7.1-5.7-12.9-12.9-12.9zm2.6 17.3h-5l-2.5-4.4 2.5-4.2h5l2.5 4.2-2.5 4.4z" fill="#323e44"/><path d="m116.5 17.3-6.2-10.8c-2.2 3.8-2.3 7.3-1 10.8h7.2z" fill="#ffd34a"/><path d="m111 5.6 3.7 6.3 6.1-10.8c-4-.1-7.2 1.4-9.8 4.5z" fill="#f99d29"/><path d="m122 1.3-3.6 6.2h12.3c-1.8-3.2-4.5-5.5-8.7-6.2z" fill="#e8504c"/><path d="m124 8.7 6.2 10.8c2-3.5 2.3-7.1 1.1-10.8H124z" fill="#8e1d58"/><path d="m125.8 14 3.7 6.3c-2.9 3.3-6.3 4.5-9.8 4.4l6.1-10.7z" fill="#1f8bcc"/><path d="M109.8 18.3h12.3l-3.6 6.3c-3.8-.7-6.8-2.6-8.7-6.3z" fill="#89bb53"/></svg>